<svg width="37" height="30" viewBox="0 0 37 30" fill="none" xmlns="http://www.w3.org/2000/svg">
<path d="M6.36063 8.47755H0V20.7261H6.36063L18.3768 28.4305C18.3768 28.4305 20.582 30.0326 20.582 28.3723V0.583746C20.582 -0.71247 18.6318 0.554617 18.6318 0.554617L6.36063 8.47755Z" fill="#00FF94"/>
<path d="M30.1217 27.8751C29.8217 27.8751 29.5067 27.7586 29.2817 27.511C28.8616 27.0595 28.9066 26.375 29.3567 25.9672C32.822 22.9233 34.7422 18.8744 34.7422 14.5633C34.7422 10.2523 32.837 6.18884 29.3567 3.15946C28.8916 2.75166 28.8616 2.06713 29.2817 1.61564C29.7017 1.16415 30.4068 1.13502 30.8718 1.54282C34.8172 5.00913 36.9924 9.62602 36.9924 14.5779C36.9924 19.5152 34.8172 24.1321 30.8718 27.5984C30.6618 27.7732 30.3918 27.8751 30.1217 27.8751Z" fill="#00FF94"/>
<path d="M26.6431 22.8823C26.373 22.8823 26.118 22.7949 25.893 22.6056C25.428 22.2124 25.383 21.5133 25.803 21.0618C27.3931 19.3286 28.2632 17.0274 28.2632 14.5661C28.2632 12.0901 27.3931 9.78893 25.803 8.07034C25.383 7.61884 25.428 6.93431 25.893 6.52651C26.358 6.11871 27.0631 6.1624 27.4832 6.6139C29.4483 8.7403 30.5284 11.5658 30.5284 14.5661C30.5284 17.5663 29.4483 20.3918 27.4982 22.5182C27.2581 22.7658 26.9581 22.8823 26.6431 22.8823Z" fill="#00FF94"/>
</svg>
